# xmcd
#
# Track frame offsets:
# 150
# 15468
# 41503
# 59585
# 80818
# 96190
# 125650
# 133340
# 149908
# 171275
# 184718
# 204220
#
# Disc length: 3079 seconds
#
#
# Revision: 0
# Processed by: cddbd v1.5.2PL0 Copyright (c) Steve Scherf et al.
# Submitted via: Nero 7, 11, 10, 0 
#
DISCID=b50c050c
DTITLE=Steve Gornall - Steve Gornall and The Blue Collar Blues Band
DYEAR=1993
DGENRE=Blues
TTITLE0=Play Doctor
TTITLE1=Heart On the Ground
TTITLE2=No Blues Blues
TTITLE3=All You Gotta Do
TTITLE4=7-11 Sunset Strip
TTITLE5=Red Hot
TTITLE6=Busy Guitar
TTITLE7=Daddy's Little Girl
TTITLE8=Haunted House Blues
TTITLE9=Tippin'
TTITLE10=Runnin'
TTITLE11=Tore Down
EXTD=
EXTT0=Play Doctor
EXTT1=Heart On the Ground
EXTT2=No Blues Blues
EXTT3=All You Gotta Do
EXTT4=7-11 Sunset Strip
EXTT5=Red Hot
EXTT6=Busy Guitar
EXTT7=Daddy's Little Girl
EXTT8=Haunted House Blues
EXTT9=Tippin'
EXTT10=Runnin'
EXTT11=Tore Down
PLAYORDER=
